<?xml version="1.0" encoding="utf-8"?>
<!-- Generator: Adobe Illustrator 15.0.2, SVG Export Plug-In . SVG Version: 6.00 Build 0)  -->
<!DOCTYPE svg PUBLIC "-//W3C//DTD SVG 1.1//EN" "http://www.w3.org/Graphics/SVG/1.1/DTD/svg11.dtd">
<svg version="1.1" id="Layer_1" xmlns="http://www.w3.org/2000/svg" xmlns:xlink="http://www.w3.org/1999/xlink" x="0px" y="0px"
	 width="21px" height="24px" viewBox="0 0 21 24" enable-background="new 0 0 21 24" xml:space="preserve">
<path d="M19.425,3.146H17.85V0.87C17.85,0.293,17.377,0,16.8,0h-0.526c-0.577,0-1.05,0.292-1.05,0.87v2.276H5.776V0.87
	C5.776,0.293,5.303,0,4.726,0H4.2C3.623,0,3.15,0.293,3.15,0.87v2.276H1.575C0.708,3.146,0,3.855,0,4.722v14.703
	C0,20.291,0.708,21,1.575,21h17.85C20.291,21,21,20.291,21,19.425V4.722C21,3.855,20.291,3.146,19.425,3.146z"/>
<path fill="#FFFFFF" d="M17,1.385C17,1.173,16.808,1,16.571,1h-0.143C16.193,1,16,1.173,16,1.385v2.23C16,3.827,16.193,4,16.429,4
	h0.143C16.808,4,17,3.827,17,3.615V1.385z"/>
<path fill="#FFFFFF" d="M5,1.385C5,1.173,4.808,1,4.572,1H4.428C4.193,1,4,1.173,4,1.385v2.231C4,3.827,4.193,4,4.428,4h0.144
	C4.808,4,5,3.827,5,3.616V1.385z"/>
<rect x="1" y="5" fill="#FFFFFF" width="4" height="3"/>
<rect x="6" y="5" fill="#FFFFFF" width="4" height="3"/>
<rect x="11" y="5" fill="#FFFFFF" width="4" height="3"/>
<rect x="16" y="5" fill="#FFFFFF" width="4" height="3"/>
<rect x="1" y="9" fill="#FFFFFF" width="4" height="3"/>
<rect x="6" y="9" fill="#FFFFFF" width="4" height="3"/>
<rect x="11" y="9" fill="#FFFFFF" width="4" height="3"/>
<rect x="16" y="9" fill="#FFFFFF" width="4" height="3"/>
<rect x="1" y="13" fill="#FFFFFF" width="4" height="3"/>
<rect x="6" y="13" fill="#FFFFFF" width="4" height="3"/>
<rect x="11" y="13" fill="#FFFFFF" width="4" height="3"/>
<rect x="16" y="13" fill="#FFFFFF" width="4" height="3"/>
<rect x="1" y="17" fill="#FFFFFF" width="4" height="3"/>
<rect x="6" y="17" fill="#FFFFFF" width="4" height="3"/>
<rect x="11" y="17" fill="#FFFFFF" width="4" height="3"/>
<rect x="16" y="17" fill="#FFFFFF" width="4" height="3"/>
</svg>
